<mxfile host="app.diagrams.net" modified="2023-07-23T13:54:37.386Z" agent="Mozilla/5.0 (Windows NT 10.0; Win64; x64) AppleWebKit/537.36 (KHTML, like Gecko) Chrome/114.0.0.0 Safari/537.36" version="21.6.5" etag="BIT4AN1dRUI4cb9a8D2f" type="github">
  <diagram name="Page-1" id="_3DsuBViYjUOI9zKNmWj">
    <mxGraphModel>
      <root>
        <mxCell id="0" />
        <mxCell id="1" parent="0" />
      </root>
    </mxGraphModel>
  </diagram>
</mxfile>
